<svg viewBox="0 0 500 500" xmlns="http://www.w3.org/2000/svg" xml:space="preserve" style="fill-rule:evenodd;clip-rule:evenodd;stroke-linejoin:round;stroke-miterlimit:2"><path d="M2012.63 724.093c0-74.808-109.7-135.543-244.82-135.543S1523 649.285 1523 724.093v793.277c0 74.81 109.69 135.54 244.81 135.54s244.82-60.73 244.82-135.54V724.093Z" style="fill:#5144ea" transform="matrix(.10068 .08095 -.14622 .18185 174.02 -96.925)"/><path d="M2012.63 790.931c0-111.697-109.7-202.381-244.82-202.381S1523 679.234 1523 790.931v659.599c0 111.7 109.69 202.38 244.81 202.38s244.82-90.68 244.82-202.38V790.931Z" style="fill:#5144ea" transform="matrix(.10068 .08095 -.09793 .12179 219.168 2.373)"/><circle cx="489.723" cy="149.446" r="43.742" style="fill:#5144ea" transform="translate(35.049 220.73) scale(.6869)"/></svg>